<svg xmlns="http://www.w3.org/2000/svg" viewBox="0 0 64 80" x="0px" y="0px"><title>FRIDGE-cool-cold-summer-drinks</title><g data-name="Layer 16"><path d="M54,1H10A4,4,0,0,0,6,5V55a4,4,0,0,0,4,4v3a1,1,0,0,0,1,1h8a1,1,0,0,0,1-1V59H44v3a1,1,0,0,0,1,1h8a1,1,0,0,0,1-1V59a4,4,0,0,0,4-4V5A4,4,0,0,0,54,1ZM18,61H12V59h6Zm34,0H46V59h6Zm4-6a2,2,0,0,1-2,2H10a2,2,0,0,1-2-2V5a2,2,0,0,1,2-2H54a2,2,0,0,1,2,2Z"/><path d="M51,6H15a3,3,0,0,0-3,3v3H11a1,1,0,0,0-1,1v8a1,1,0,0,0,1,1h1V38H11a1,1,0,0,0-1,1v8a1,1,0,0,0,1,1h1v3a3,3,0,0,0,3,3H51a3,3,0,0,0,3-3V9A3,3,0,0,0,51,6ZM12,14h2v6H12Zm3,8a1,1,0,0,0,1-1V13a1,1,0,0,0-1-1H14V9a1,1,0,0,1,1-1H51a1,1,0,0,1,1,1V27H49.39L50,25.32h0A1.07,1.07,0,0,0,50,25V17a1.07,1.07,0,0,0-.06-.31h0l-1-3A1,1,0,0,0,48,13H47V11H45v2H42a1,1,0,0,0-1,.68l-1,3h0A1.07,1.07,0,0,0,40,17v8a1.07,1.07,0,0,0,.06.31h0L40.61,27H38.39L39,25.32h0A1.07,1.07,0,0,0,39,25V17a1.07,1.07,0,0,0-.06-.31h0l-1-3A1,1,0,0,0,37,13H36V11H34v2H31a1,1,0,0,0-.95.68l-1,3h0A1.07,1.07,0,0,0,29,17v8a1.07,1.07,0,0,0,.06.31h0L29.61,27H27.39L28,25.32h0A1.07,1.07,0,0,0,28,25V17a1.07,1.07,0,0,0-.06-.31h0l-1-3A1,1,0,0,0,26,13H25V11H23v2H20a1,1,0,0,0-.95.68l-1,3h0A1.07,1.07,0,0,0,18,17v8a1.07,1.07,0,0,0,.06.31h0L18.61,27H14V22Zm-1,7H52v2H14ZM25.28,15l.33,1H20.39l.33-1ZM20,18h6v6H20Zm.39,8h5.22l-.33,1H20.72ZM36.28,15l.33,1H31.39l.33-1ZM31,18h6v6H31Zm.39,8h5.22l-.33,1H31.72ZM47.28,15l.33,1H42.39l.33-1ZM42,18h6v6H42Zm.39,8h5.22l-.33,1H42.72ZM12,40h2v6H12Zm13.28,0,.33,1H20.39l.33-1ZM20,43h6v6H20Zm.39,8h5.22l-.33,1H20.72ZM36.28,40l.33,1H31.39l.33-1ZM31,43h6v6H31Zm.39,8h5.22l-.33,1H31.72ZM47.28,40l.33,1H42.39l.33-1ZM42,43h6v6H42Zm.39,8h5.22l-.33,1H42.72ZM51,52H49.39L50,50.32h0A1.07,1.07,0,0,0,50,50V42a1.07,1.07,0,0,0-.06-.31h0l-1-3A1,1,0,0,0,48,38H47V36H45v2H42a1,1,0,0,0-1,.68l-1,3h0A1.07,1.07,0,0,0,40,42v8a1.07,1.07,0,0,0,.06.31h0L40.61,52H38.39L39,50.32h0A1.07,1.07,0,0,0,39,50V42a1.07,1.07,0,0,0-.06-.31h0l-1-3A1,1,0,0,0,37,38H36V36H34v2H31a1,1,0,0,0-.95.68l-1,3h0A1.07,1.07,0,0,0,29,42v8a1.07,1.07,0,0,0,.06.31h0L29.61,52H27.39L28,50.32h0A1.07,1.07,0,0,0,28,50V42a1.07,1.07,0,0,0-.06-.31h0l-1-3A1,1,0,0,0,26,38H25V36H23v2H20a1,1,0,0,0-.95.68l-1,3h0A1.07,1.07,0,0,0,18,42v8a1.07,1.07,0,0,0,.06.31h0L18.61,52H15a1,1,0,0,1-1-1V48h1a1,1,0,0,0,1-1V39a1,1,0,0,0-1-1H14V33H52V51A1,1,0,0,1,51,52Z"/></g><text x="0" y="79" fill="#000000" font-size="5px" font-weight="bold" font-family="'Helvetica Neue', Helvetica, Arial-Unicode, Arial, Sans-serif">Created by Start Up Graphic Design</text><text x="0" y="84" fill="#000000" font-size="5px" font-weight="bold" font-family="'Helvetica Neue', Helvetica, Arial-Unicode, Arial, Sans-serif">from the Noun Project</text></svg>