<svg xmlns="http://www.w3.org/2000/svg" xmlns:xlink="http://www.w3.org/1999/xlink" version="1.1" x="0px" y="0px" viewBox="0 0 100 125" style="enable-background:new 0 0 100 100;" xml:space="preserve"><path d="M77.08,76.47c0-2.66-2.16-4.82-4.81-4.82v-5.98h2.79c0.44,0,0.8-0.36,0.8-0.8V50.26c0-0.44-0.36-0.8-0.8-0.8h-2.79v-0.2  c0-2.63-1.94-4.81-4.46-5.19v-0.48c0-1.49-1.21-2.7-2.7-2.7s-2.7,1.21-2.7,2.7v0.42h-2.64v-0.42c0-1.49-1.35-2.7-3.01-2.7  c-1.66,0-3.01,1.21-3.01,2.7v0.42H51.1v-0.42c0-1.49-1.35-2.7-3.01-2.7c-1.66,0-3.01,1.21-3.01,2.7v0.42h-2.64v-0.42  c0-1.49-1.35-2.7-3.01-2.7c-1.66,0-3.01,1.21-3.01,2.7v0.42h-2.64v-0.42c0-1.49-1.35-2.7-3.01-2.7c-1.66,0-3.01,1.21-3.01,2.7v0.44  c-2.7,0.22-4.82,2.48-4.82,5.24v35.04c0,2.29,1.47,4.24,3.52,4.96c-0.12,0.15-0.24,0.29-0.36,0.43c-1.24,1.48-2.01,2.4-2.09,5.03  c0,0.03-0.01,0.07-0.01,0.1v0.35c0,0.19,0.07,0.37,0.19,0.51c0.33,0.72,1.06,1.23,1.9,1.23c1.05,0,1.92-0.78,2.06-1.79  c0.01-0.06,0.02-0.12,0.02-0.18c0-1.91,0.32-2.12,0.8-2.43c0.09-0.06,0.19-0.12,0.29-0.19c0.44,0.23,0.96,0.36,1.5,0.36  c1.66,0,3.01-1.21,3.01-2.7v-0.42h2.64v0.42c0,1.49,1.35,2.7,3.01,2.7c1.66,0,3.01-1.21,3.01-2.7v-0.42h2.64v0.42  c0,1.49,1.35,2.7,3.01,2.7c1.66,0,3.01-1.21,3.01-2.7v-0.42h2.64v0.42c0,1.49,1.35,2.7,3.01,2.7c1.66,0,3.01-1.21,3.01-2.7v-0.42  h2.64v0.42c0,1.49,1.21,2.7,2.7,2.7c0.53,0,1.02-0.16,1.44-0.42c0.13,0.1,0.25,0.18,0.37,0.25c0.48,0.31,0.8,0.51,0.8,2.43  c0,0.06,0.01,0.12,0.02,0.18c0.14,1.01,1.01,1.79,2.06,1.79c0.84,0,1.57-0.5,1.9-1.23c0.12-0.14,0.19-0.32,0.19-0.51v-0.35  c0-0.03,0-0.07-0.01-0.1c-0.08-2.63-0.85-3.56-2.09-5.03c-0.17-0.2-0.34-0.41-0.53-0.64c1.77-0.85,3.01-2.65,3.01-4.74v-3.02  C74.92,81.28,77.08,79.12,77.08,76.47z M74.26,51.06v13.02h-1.99V51.06H74.26z M59.77,49.13h2.64v35.31h-2.64V49.13z M62.41,45.6  v1.94h-2.64V45.6H62.41z M51.1,49.13h2.64v35.31H51.1V49.13z M53.74,45.6v1.94H51.1V45.6H53.74z M42.44,49.13h2.64v35.31h-2.64  V49.13z M45.07,45.6v1.94h-2.64V45.6H45.07z M33.77,49.13h2.64v35.31h-2.64V49.13z M36.41,45.6v1.94h-2.64V45.6H36.41z M24.51,84.31  V49.26c0-1.87,1.41-3.42,3.23-3.64v42.18c-0.07,0.02-0.13,0.06-0.19,0.1C25.82,87.62,24.51,86.11,24.51,84.31z M26.57,94.8  c0,0.01,0,0.02,0,0.03c0,0.27-0.22,0.49-0.49,0.49c-0.25,0-0.46-0.19-0.49-0.44c0.04-2.16,0.55-2.77,1.72-4.17  c0.14-0.17,0.29-0.35,0.44-0.54c0.03,0.36,0.14,0.71,0.31,1.02C27.2,91.76,26.59,92.37,26.57,94.8z M32.18,89.98  c0,0.6-0.65,1.11-1.42,1.11c-0.77,0-1.42-0.51-1.42-1.11v-46.4c0-0.6,0.65-1.11,1.42-1.11c0.77,0,1.42,0.51,1.42,1.11V89.98z   M33.77,87.97v-1.94h2.64v1.94H33.77z M40.84,89.98c0,0.6-0.65,1.11-1.42,1.11c-0.77,0-1.42-0.51-1.42-1.11v-46.4  c0-0.6,0.65-1.11,1.42-1.11c0.77,0,1.42,0.51,1.42,1.11V89.98z M42.44,87.97v-1.94h2.64v1.94H42.44z M49.51,89.98  c0,0.6-0.65,1.11-1.42,1.11c-0.77,0-1.42-0.51-1.42-1.11v-46.4c0-0.6,0.65-1.11,1.42-1.11c0.77,0,1.42,0.51,1.42,1.11V89.98z   M51.1,87.97v-1.94h2.64v1.94H51.1z M58.18,89.98c0,0.6-0.65,1.11-1.42,1.11c-0.77,0-1.42-0.51-1.42-1.11v-46.4  c0-0.6,0.65-1.11,1.42-1.11c0.77,0,1.42,0.51,1.42,1.11V89.98z M59.77,87.97v-1.94h2.64v1.94H59.77z M65.11,91.09  c-0.61,0-1.11-0.5-1.11-1.11v-46.4c0-0.61,0.5-1.11,1.11-1.11s1.11,0.5,1.11,1.11v46.4C66.22,90.59,65.72,91.09,65.11,91.09z   M70.29,94.88c-0.03,0.25-0.24,0.44-0.49,0.44c-0.27,0-0.49-0.22-0.49-0.49c0-0.01,0-0.02,0-0.03c-0.02-2.46-0.65-3.06-1.53-3.62  c-0.07-0.04-0.13-0.08-0.19-0.12c0.14-0.33,0.22-0.69,0.22-1.07v-0.2c0.27,0.34,0.53,0.65,0.76,0.93  C69.74,92.11,70.25,92.72,70.29,94.88z M70.68,84.31c0,1.64-1.08,3.03-2.57,3.5c-0.1-0.03-0.2-0.04-0.3-0.03V45.69  c1.64,0.36,2.87,1.83,2.87,3.58v1v14.61v7.57v8.05V84.31z M72.27,79.7v-6.46c1.78,0,3.22,1.45,3.22,3.23S74.05,79.69,72.27,79.7z   M32.12,37.8c-0.55,0-1-0.45-1-1c0-4.31,1.69-6.88,3.19-9.15c1.38-2.09,2.57-3.89,2.57-6.86c0-6.29-4.01-10.49-4.05-10.53  c-0.38-0.4-0.38-1.03,0.02-1.41c0.4-0.38,1.03-0.38,1.41,0.02c0.19,0.19,4.62,4.83,4.62,11.93c0,3.57-1.47,5.8-2.9,7.96  c-1.47,2.23-2.86,4.34-2.86,8.05C33.12,37.35,32.67,37.8,32.12,37.8z M44.5,32.8c-0.55,0-1-0.45-1-1c0-4.31,1.69-6.88,3.19-9.15  c1.38-2.09,2.57-3.89,2.57-6.86c0-6.29-4.01-10.49-4.05-10.53c-0.38-0.4-0.38-1.03,0.02-1.41c0.4-0.38,1.03-0.38,1.41,0.02  c0.19,0.19,4.62,4.83,4.62,11.93c0,3.57-1.47,5.8-2.9,7.96c-1.47,2.23-2.86,4.34-2.86,8.05C45.5,32.35,45.05,32.8,44.5,32.8z   M56.88,37.8c-0.55,0-1-0.45-1-1c0-4.31,1.69-6.88,3.19-9.15c1.38-2.09,2.57-3.89,2.57-6.86c0-6.29-4.01-10.49-4.05-10.53  c-0.38-0.4-0.38-1.03,0.02-1.41c0.4-0.38,1.03-0.38,1.41,0.02c0.19,0.19,4.62,4.83,4.62,11.93c0,3.57-1.47,5.8-2.9,7.96  c-1.47,2.23-2.86,4.34-2.86,8.05C57.88,37.35,57.43,37.8,56.88,37.8z"/><text x="0" y="115" fill="#000000" font-size="5px" font-weight="bold" font-family="'Helvetica Neue', Helvetica, Arial-Unicode, Arial, Sans-serif">Created by Charlotte Vogel</text><text x="0" y="120" fill="#000000" font-size="5px" font-weight="bold" font-family="'Helvetica Neue', Helvetica, Arial-Unicode, Arial, Sans-serif">from the Noun Project</text></svg>