<?xml version="1.0" encoding="utf-8"?>
<!-- Generator: Adobe Illustrator 25.3.1, SVG Export Plug-In . SVG Version: 6.00 Build 0)  -->
<svg version="1.1" id="Layer_1" xmlns="http://www.w3.org/2000/svg" xmlns:xlink="http://www.w3.org/1999/xlink" x="0px" y="0px"
	 viewBox="0 0 520.6 132.7" style="enable-background:new 0 0 520.6 132.7;" xml:space="preserve">
<style type="text/css">
	.st0{fill:#22254E;}
	.st1{fill:#F7AE21;}
	.st2{fill:#36A9E1;}
	.st3{fill:#1D71B8;}
	.st4{font-family:'Baloo';}
	.st5{font-size:68.9741px;}
	.st6{font-family:'Baloo2-SemiBold';}
</style>
<path class="st0" d="M1057.5,387.2c-1.8-1.8-3.7-3.6-5.5-5.4C1053.8,383.7,1055.7,385.5,1057.5,387.2c-0.3,0.5-0.6,0.9-0.9,1.4
	C1056.9,388.2,1057.2,387.7,1057.5,387.2z"/>
<g>
	<path class="st0" d="M19.1,84.7c1.8,0.7,3.5,1.5,5.2,2.1c6.7,2.2,13,1,19.2-1.9c7-3.2,13.1-7.9,19-12.7c5.3-4.3,10.5-8.7,16-12.6
		c6.6-4.7,13.9-7.7,22.1-8.5c11.2-1,20.8,2.7,29.3,9.9c1.9,1.6,3.6,3.4,5.3,5.1c-0.1,0.1-0.1,0.2-0.2,0.3c-1.1-0.5-2.2-1.1-3.3-1.6
		c-5.2-2.5-10.5-4.6-16.3-4.8c-8.4-0.4-15.9,2.2-22.4,7.5c-6.1,5.1-12.2,10.2-18.4,15.2c-3,2.4-6.2,4.5-9.5,6.5
		c-6.5,3.9-13.8,4.7-21.2,4.3c-9-0.5-17.2-3.3-24.4-8.6C19.2,84.9,19.2,84.8,19.1,84.7z"/>
	<g>
		<g>
			<path class="st1" d="M50.3,64.1c-0.3,0-0.6-0.1-0.9-0.2c-1.2-0.5-1.8-1.9-1.4-3.1c0-0.1,0.1-0.2,0.1-0.3l0-0.1
				c0.5-1.2,1.9-1.8,3.1-1.3c1.2,0.5,1.8,1.9,1.3,3.1l0,0.1c0,0.1-0.1,0.1-0.1,0.2C52.2,63.6,51.3,64.1,50.3,64.1z"/>
		</g>
		<g>
			<path class="st1" d="M77.6,38c-1.3,0-2.4-1.1-2.4-2.4V19.3c0-1.3,1.1-2.4,2.4-2.4S80,18,80,19.3v16.3C80,36.9,78.9,38,77.6,38z"
				/>
		</g>
		<g>
			<path class="st1" d="M51.7,48.7c-0.6,0-1.2-0.2-1.7-0.7L38.5,36.5c-0.9-0.9-0.9-2.5,0-3.4c0.9-0.9,2.5-0.9,3.4,0l11.5,11.5
				c0.9,0.9,0.9,2.5,0,3.4C52.9,48.5,52.3,48.7,51.7,48.7z"/>
		</g>
		<g>
			<path class="st1" d="M41,74.6H24.7c-1.3,0-2.4-1.1-2.4-2.4s1.1-2.4,2.4-2.4H41c1.3,0,2.4,1.1,2.4,2.4S42.3,74.6,41,74.6z"/>
		</g>
		<g>
			<path class="st1" d="M103.5,48.7c-0.6,0-1.2-0.2-1.7-0.7c-0.9-0.9-0.9-2.5,0-3.4l11.5-11.5c0.9-0.9,2.5-0.9,3.4,0
				c0.9,0.9,0.9,2.5,0,3.4L105.2,48C104.7,48.5,104.1,48.7,103.5,48.7z"/>
		</g>
		<path class="st1" d="M52.4,57.3c1.1,0.8,2.6,0.5,3.4-0.6c5-7.1,13.2-11.3,21.8-11.3c0,0,0,0,0,0c6.5,0,12.6,2.3,17.5,6.5
			c1.9-0.5,3.9-0.8,5.9-1c-0.3-0.4-0.6-0.7-1-1c-6-6-13.9-9.3-22.3-9.3c0,0,0,0,0,0c-10.2,0-19.8,5-25.8,13.3
			C51.1,55,51.3,56.5,52.4,57.3z"/>
		<path class="st1" d="M52,80.3c-0.8-2.6-1.2-5.3-1.2-8c0-1.2,0.1-2.4,0.2-3.5c0.2-1.3-0.8-2.5-2.1-2.7c-1.3-0.2-2.5,0.8-2.7,2.1
			c-0.2,1.4-0.3,2.8-0.3,4.1c0,3.7,0.6,7.3,1.8,10.6C49.3,82,50.7,81.2,52,80.3z"/>
	</g>
	<g>
		<g>
			<path class="st2" d="M73.2,93l-4.5-2.6l3.7-6.4c-2.5,1.9-5.2,3.6-7.9,5.2c-1.3,0.8-2.6,1.4-4,2l1.6,0.9l-2.3,4l-13.8,3.7
				c-1.3,0.3-2,1.7-1.7,2.9c0.3,1.3,1.7,2,2.9,1.7l9.2-2.5l-5.9,10.2c-0.7,1.2-0.3,2.6,0.9,3.3c0.4,0.2,0.8,0.3,1.2,0.3
				c0.8,0,1.6-0.4,2.1-1.2l5.9-10.2l2.5,9.2c0.3,1.1,1.3,1.8,2.3,1.8c0.2,0,0.4,0,0.6-0.1c1.3-0.3,2-1.7,1.7-2.9l-3.7-13.8l2.3-4
				l4.5,2.6c0.4,0.2,0.8,0.3,1.2,0.3c0.8,0,1.6-0.4,2.1-1.2C74.8,95.1,74.4,93.6,73.2,93z"/>
			<path class="st2" d="M105.5,99.8l-13.9-3.7c-0.8-1.3-1.5-2.6-2.3-4l4.5-2.6c1.2-0.7,1.5-2.1,0.9-3.3c-0.7-1.2-2.1-1.5-3.3-0.9
				L86.9,88c-0.5-0.8-1-1.7-1.4-2.5c-1.6-2.7-3.1-5.5-4.7-8.2c-1.3,1-2.5,2.1-3.8,3.1c1.4,2.5,2.8,5,4.3,7.5c0.5,0.8,1,1.7,1.4,2.5
				L78.3,93c-1.2,0.7-1.5,2.1-0.9,3.3c0.4,0.8,1.3,1.2,2.1,1.2c0.4,0,0.8-0.1,1.2-0.3l4.5-2.6c0.8,1.3,1.5,2.7,2.3,4l-3.7,13.8
				c-0.3,1.3,0.4,2.6,1.7,2.9c0.2,0.1,0.4,0.1,0.6,0.1c1.1,0,2-0.7,2.3-1.8l2.4-9.1c0.4,0.8,1.3,1.2,2.1,1.2c0.4,0,0.8-0.1,1.2-0.3
				c1.2-0.7,1.5-2.1,0.9-3.3c0,0,0-0.1-0.1-0.1l9.3,2.5c1.3,0.3,2.6-0.4,2.9-1.7C107.5,101.5,106.8,100.2,105.5,99.8z"/>
			<path class="st2" d="M121.9,71h-11.8l6.7-6.7c0.9-0.9,0.9-2.5,0-3.4c-0.9-0.9-2.5-0.9-3.4,0L103.3,71h-4.5v-5.2
				c0-0.8-0.4-1.5-0.9-1.9c-1.3,0.7-2.6,1.6-3.9,2.5V71h-5.6c-1.9,1.6-3.9,3.2-5.8,4.8h11.4V81c0,1.3,1.1,2.4,2.4,2.4
				c1.3,0,2.4-1.1,2.4-2.4v-5.2h4.5L113.4,86c0.5,0.5,1.1,0.7,1.7,0.7c0.6,0,1.2-0.2,1.7-0.7c0.9-0.9,0.9-2.5,0-3.4l-6.7-6.7h11.8
				c1.3,0,2.4-1.1,2.4-2.4S123.2,71,121.9,71z"/>
		</g>
		<path class="st2" d="M98.5,107.6c-0.7-1.1-2.1-1.5-3.3-0.9c-1.1,0.7-1.5,2.1-0.9,3.3c0.9,1.5,1.8,3.1,2.7,4.6
			c0.4,0.8,1.3,1.2,2.1,1.2c0.4,0,0.8-0.1,1.2-0.3c1.1-0.7,1.5-2.2,0.8-3.3C100.3,110.6,99.4,109.1,98.5,107.6z"/>
	</g>
	<path class="st2" d="M27.7,89.5c6.6,2.3,13,1.2,19.3-1.5c7.1-3.1,13.2-7.6,19.3-12.3c5.4-4.2,10.7-8.4,16.3-12.3
		c6.7-4.5,14.1-7.4,22.2-8c11.1-0.8,20.5,3.1,28.7,10.3c0.5,0.2,1,0.5,1.5,0.7c0.1-0.1,0.1-0.2,0.2-0.3c-1.8-1.7-3.5-3.5-5.3-5.1
		c-8.4-7.2-18.1-10.9-29.3-9.9c-8.1,0.8-15.5,3.8-22.1,8.5c-5.5,3.9-10.7,8.3-16,12.6c-6,4.8-12,9.5-19,12.7
		c-6.2,2.8-12.6,4.1-19.2,1.9c-1.7-0.6-3.4-1.4-5.2-2.1c0.1,0.1,0.2,0.2,0.2,0.2c1.5,1.1,3,2.1,4.6,3C25.2,88.5,26.4,89,27.7,89.5z"
		/>
	<path class="st3" d="M91.6,65.6c-6.1,5.1-12.2,10.2-18.4,15.2c-3,2.4-6.2,4.5-9.5,6.5c-6.5,3.9-13.8,4.7-21.2,4.3
		c-2-0.1-3.9-0.3-5.8-0.6c-3,0.2-6-0.1-9.1-1.2c-1.3-0.4-2.5-1-3.8-1.6c6.1,3.4,12.7,5.2,19.8,5.6c7.4,0.4,14.7-0.3,21.2-4.3
		c3.3-2,6.5-4.1,9.5-6.5c6.2-4.9,12.3-10.1,18.4-15.2c6.5-5.4,14-7.9,22.4-7.5c5.8,0.3,11.2,2.3,16.3,4.8c0.6,0.3,1.2,0.6,1.8,0.9
		c-1.8-1.6-3.7-3-5.7-4.3c-4.3-1.9-8.8-3.4-13.6-3.6C105.6,57.6,98.1,60.2,91.6,65.6z"/>
</g>
<path class="st0" d="M595.1,477.6c-3.2-1.8-6.4-3.7-9.5-5.7C588.7,473.9,591.9,475.8,595.1,477.6z"/>
<text transform="matrix(1 0 0 1 151.4501 90.0035)"><tspan x="0" y="0" class="st1 st4 st5">DWO</tspan><tspan x="153.9" y="0" class="st2 st6 st5">KLIMA</tspan></text>
</svg>
