<svg xmlns:dc="http://purl.org/dc/elements/1.1/" xmlns:cc="http://creativecommons.org/ns#" xmlns:rdf="http://www.w3.org/1999/02/22-rdf-syntax-ns#" xmlns:svg="http://www.w3.org/2000/svg" xmlns="http://www.w3.org/2000/svg" xmlns:sodipodi="http://sodipodi.sourceforge.net/DTD/sodipodi-0.dtd" xmlns:inkscape="http://www.inkscape.org/namespaces/inkscape" viewBox="0 0 12.7 15.875" version="1.1" x="0px" y="0px"><g transform="translate(0,-284.29998)"><path style="" d="m 2.9598,284.82914 a 0.81418596,0.81418596 0 0 0 -0.8139,0.81442 v 9.19893 a 0.81418596,0.81418596 0 0 0 0.8139,0.81442 h 1.6004 v 0.8139 h 0.5431 v -0.8139 h 2.4929 v 0.8139 h 0.5431 v -0.8139 h 1.6004 a 0.81418596,0.81418596 0 0 0 0.8144,-0.81442 v -9.19893 a 0.81418596,0.81418596 0 0 0 -0.8144,-0.81442 z m 0,0.54312 h 6.7799 a 0.27139535,0.27139535 0 0 1 0.2713,0.2713 v 1.26918 a 0.27139535,0.27139535 0 0 1 -0.2713,0.2713 H 2.9598 a 0.27139535,0.27139535 0 0 1 -0.2713,-0.2713 v -1.26918 a 0.27139535,0.27139535 0 0 1 0.2713,-0.2713 z m 0,2.3549 h 6.7799 a 0.27139535,0.27139535 0 0 1 0.2713,0.2713 v 6.84403 a 0.27139535,0.27139535 0 0 1 -0.2713,0.2713 H 2.9598 a 0.27139535,0.27139535 0 0 1 -0.2713,-0.2713 v -6.84403 a 0.27139535,0.27139535 0 0 1 0.2713,-0.2713 z" fill="#000000" stroke="none"/><path style="" d="m 6.4007,291.52385 a 0.88930012,0.88930012 0 0 1 0.2828,-0.95364 0.3175,0.3175 0 0 0 0.078,-0.0953 1.8379963,1.8379963 0 0 0 0.1843,-0.51983 0.3175,0.3175 0 0 0 -0.039,-0.22304 6.0325,6.0325 0 0 0 -0.6655,-0.90765 0.03174998,0.03174998 0 0 0 -0.054,0.0316 0.71425678,0.71425678 0 0 1 -0.147,0.71762 5.715,5.715 0 0 0 -0.5323,0.67895 0.55863485,0.55863485 0 0 0 0.047,0.68226 3.175,3.175 0 0 0 0.6346,0.54601 0.29217927,0.29217927 0 0 0 0.2106,0.043 z" fill="#000000" stroke="none"/><path style="" d="m 7.0815,290.04513 a 0.03174998,0.03174998 0 0 0 -0.059,0.007 1.9332462,1.9332462 0 0 1 -0.1881,0.48792 0.3175,0.3175 0 0 1 -0.08,0.0952 0.79405012,0.79405012 0 0 0 -0.2635,0.85659 0.29217927,0.29217927 0 0 0 0.021,-0.013 3.175,3.175 0 0 0 0.6073,-0.52786 0.58590741,0.58590741 0 0 0 0.095,-0.63394 6.0325,6.0325 0 0 0 -0.1331,-0.27225 z" fill="#000000" stroke="none"/><path style="" d="m 4.7399,293.39068 a 0.18917,0.18917 0 0 0 0,0.37834 h 3.2197 a 0.18917,0.18917 0 0 0 0,-0.37834 z" fill="#000000" stroke="none"/></g><text x="0" y="27.7" fill="#000000" font-size="5px" font-weight="bold" font-family="'Helvetica Neue', Helvetica, Arial-Unicode, Arial, Sans-serif">Created by Phạm Thanh Lộc</text><text x="0" y="32.7" fill="#000000" font-size="5px" font-weight="bold" font-family="'Helvetica Neue', Helvetica, Arial-Unicode, Arial, Sans-serif">from the Noun Project</text></svg>