<svg xmlns="http://www.w3.org/2000/svg" xmlns:xlink="http://www.w3.org/1999/xlink" xml:space="preserve" version="1.1" style="shape-rendering:geometricPrecision;text-rendering:geometricPrecision;image-rendering:optimizeQuality;" viewBox="0 0 50000 62500" x="0px" y="0px" fill-rule="evenodd" clip-rule="evenodd"><defs><style type="text/css">
   
    .fil1 {fill:black}
    .fil0 {fill:black;fill-rule:nonzero}
   
  </style></defs><g><g><path class="fil0" d="M11735 9741c-160,-3901 1591,-6024 4146,-7192 2470,-1130 5674,-1330 8586,-1406 3021,-79 6369,46 8997,1180 2710,1169 4645,3375 4693,7442l83 33206c3,123 11,261 18,384 42,743 61,1077 -622,1290 -436,136 -2366,438 -4111,710 -1261,197 -2422,379 -2730,429 -487,1006 -1401,1804 -2522,2337 -927,440 -2002,701 -3092,748 -1092,46 -2203,-124 -3203,-545 -1177,-496 -2196,-1337 -2849,-2579 -417,-67 -983,-133 -1610,-207 -1852,-217 -4225,-495 -5320,-1119 -476,-271 -471,-710 -465,-1179 1,-65 1,-130 0,-195l1 -33304zm4515 -6385c-2237,1023 -3769,2894 -3628,6350l0 33322c1,75 0,149 -1,222 -2,199 -4,385 17,397 936,533 3208,799 4982,1007 753,88 1420,167 1888,255l223 42 97 205c543,1142 1444,1907 2495,2350 874,368 1854,516 2823,475 969,-41 1924,-273 2748,-664 1000,-476 1796,-1183 2166,-2061l52 -125 112 -74c166,-110 1592,-333 3165,-579 1708,-266 3596,-561 3983,-683 20,-6 14,-125 -1,-391 -7,-111 -14,-237 -18,-413l-83 -33216c-44,-3634 -1757,-5598 -4157,-6634 -2482,-1071 -5706,-1187 -8625,-1110 -2821,73 -5917,263 -8238,1325z"/><path class="fil0" d="M18925 44797c1756,218 3697,335 5761,340 2006,5 4138,-94 6342,-309l83 884c-2229,217 -4389,318 -6425,313 -2119,-6 -4095,-124 -5868,-344l107 -884z"/><path class="fil0" d="M24998 10333c1267,0 2415,514 3245,1344 830,831 1344,1978 1344,3245 0,1267 -514,2415 -1344,3245 -830,830 -1978,1344 -3245,1344 -1267,0 -2414,-514 -3245,-1344 -830,-830 -1344,-1978 -1344,-3245 0,-1267 514,-2414 1344,-3245 831,-830 1978,-1344 3245,-1344zm2615 1974c-669,-669 -1594,-1083 -2615,-1083 -1021,0 -1945,414 -2615,1083 -669,670 -1083,1594 -1083,2615 0,1021 414,1946 1083,2615 670,669 1594,1083 2615,1083 1021,0 1946,-414 2615,-1083 669,-669 1083,-1594 1083,-2615 0,-1021 -414,-1945 -1083,-2615z"/><path class="fil0" d="M24713 15263l-1904 -2108c-110,-142 -6,-244 147,-178l2328 1604c695,470 -55,1215 -571,682z"/><rect class="fil1" x="23892" y="16735" width="2213" height="535"/><path class="fil0" d="M23292 12610c1342,-1313 4356,-636 4561,2021l-942 9c-98,-1715 -1715,-2631 -3434,-1902l-185 -128z"/></g></g><text x="0" y="50015" fill="#000000" font-size="5px" font-weight="bold" font-family="'Helvetica Neue', Helvetica, Arial-Unicode, Arial, Sans-serif">Created by Oleksandr Panasovskyi</text><text x="0" y="50020" fill="#000000" font-size="5px" font-weight="bold" font-family="'Helvetica Neue', Helvetica, Arial-Unicode, Arial, Sans-serif">from the Noun Project</text></svg>