<svg xmlns="http://www.w3.org/2000/svg" data-name="Layer 1" viewBox="0 0 64 80" x="0px" y="0px"><title>Artboard 1 copy 5</title><path d="M44.40262,7H19.597a2.0026,2.0026,0,0,0-2,2V50.63672a2.0026,2.0026,0,0,0,2,2h.18262V55a2.0026,2.0026,0,0,0,2,2h3.09668a2.00261,2.00261,0,0,0,2-2V52.63672h10.248V55a2.0026,2.0026,0,0,0,2,2H42.221a2.0026,2.0026,0,0,0,2-2V52.63672h.18164a2.0026,2.0026,0,0,0,2-2V9A2.0026,2.0026,0,0,0,44.40262,7ZM24.87723,55H21.77958V52.63672h3.09668ZM42.222,55H39.1243V52.63672H42.221Zm2.18164-4.36328H19.597v-26.208H44.40262ZM19.597,22.42871V9H44.40262V22.42871Z"/><path d="M22.7659,12.35352a.75019.75019,0,0,0-.75.75v5.2207a.75.75,0,0,0,1.5,0v-5.2207A.75018.75018,0,0,0,22.7659,12.35352Z"/><path d="M22.7659,34.9375a.75019.75019,0,0,0,.75-.75V28.9668a.75.75,0,0,0-1.5,0v5.2207A.7502.7502,0,0,0,22.7659,34.9375Z"/><text x="0" y="79" fill="#000000" font-size="5px" font-weight="bold" font-family="'Helvetica Neue', Helvetica, Arial-Unicode, Arial, Sans-serif">Created by Slurp Design</text><text x="0" y="84" fill="#000000" font-size="5px" font-weight="bold" font-family="'Helvetica Neue', Helvetica, Arial-Unicode, Arial, Sans-serif">from the Noun Project</text></svg>