<svg xmlns="http://www.w3.org/2000/svg" xmlns:xlink="http://www.w3.org/1999/xlink" version="1.1" x="0px" y="0px" viewBox="0 0 130 162.5" style="enable-background:new 0 0 130 130;" xml:space="preserve"><g><path d="M66.8,64.6c0.1,0,0.2,0,0.3,0c0.3,0,0.5-0.1,0.6-0.2c0.6-0.6,0.1-1.3-0.4-1.9c-0.1-0.1-0.2-0.3-0.2-0.3   c-1.2-2.2-1.2-3.6,0.1-4.9c0.7-0.7,1.6-1.3,2.5-1.9c0.2-0.1,0.3-0.2,0.5-0.3l0.2-0.2c2.6-1.8,5-3.5,5.8-6.6c1-4.1-0.4-8.1-3.7-10.8   c-1.6-1.3-3.4-2.3-5.2-3.3c-0.8-0.4-1.6-0.9-2.4-1.4c0,0,0,0,0,0c-1-0.6-1.6,0-1.7,0.2c0,0,0,0,0,0.1c-0.3,0.5,0,1,0.4,1.7   c0.1,0.2,0.2,0.4,0.3,0.6c1,2.4,0.7,3.9-1.1,5.4c-0.9,0.8-1.8,1.4-2.8,2c-5.2,3.2-6.8,7.4-4.8,12.5C56.9,59.9,65.1,64.3,66.8,64.6z    M63.2,47.9c1-0.6,2-1.3,2.9-2.1c1.4-1.1,2.2-2.4,2.4-3.8c0.5,0.3,0.9,0.6,1.3,0.9c2,1.6,2.9,4.1,2.3,6.7c-0.4,1.6-1.7,2.6-3.9,4.1   c0,0-0.5,0.3-0.6,0.4c-0.9,0.6-1.9,1.3-2.7,2.2c-1.7,1.9-1.2,2.9-1.1,3.5c-1.4-0.8-3.1-3.2-3.6-4.3C59,52.3,59.9,49.9,63.2,47.9z"/><path d="M100.6,10.1H29.4c-1.1,0-2,0.9-2,2v105.1c0,1.1,0.9,2,2,2h7.5v3.5c0,0.6,0.5,1.1,1.1,1.1s1.1-0.5,1.1-1.1v-3.5h2.6v3.5   c0,0.6,0.5,1.1,1.1,1.1s1.1-0.5,1.1-1.1v-3.5H86v3.5c0,0.6,0.5,1.1,1.1,1.1s1.1-0.5,1.1-1.1v-3.5h2.6v3.5c0,0.6,0.5,1.1,1.1,1.1   s1.1-0.5,1.1-1.1v-3.5h7.5c1.1,0,2-0.9,2-2V12.1C102.6,11,101.7,10.1,100.6,10.1z M98.6,115.2H31.4V85.1h67.1V115.2z M98.6,14.1   v68.8H31.4V14.1H98.6z"/><path d="M65,109.6c5.3,0,9.6-4.3,9.6-9.7c0-5.3-4.3-9.6-9.6-9.6c-5.3,0-9.6,4.3-9.6,9.6C55.4,105.3,59.7,109.6,65,109.6z M65,92.6   c4.1,0,7.4,3.3,7.4,7.4c0,4.1-3.3,7.4-7.4,7.4s-7.4-3.3-7.4-7.4C57.6,95.9,60.9,92.6,65,92.6z"/></g><text x="0" y="145" fill="#000000" font-size="5px" font-weight="bold" font-family="'Helvetica Neue', Helvetica, Arial-Unicode, Arial, Sans-serif">Created by Carl Holderness</text><text x="0" y="150" fill="#000000" font-size="5px" font-weight="bold" font-family="'Helvetica Neue', Helvetica, Arial-Unicode, Arial, Sans-serif">from the Noun Project</text></svg>