<svg xmlns="http://www.w3.org/2000/svg" data-name="Layer 1" viewBox="0 0 128 160" x="0px" y="0px"><title>energy electricity alternative power plant solar panel1</title><g><path d="M28,40.4761A12.4761,12.4761,0,1,0,15.5234,28,12.49,12.49,0,0,0,28,40.4761Zm0-20.9522A8.4761,8.4761,0,1,1,19.5234,28,8.486,8.486,0,0,1,28,19.5239Z"/><path d="M28,13.2383a2,2,0,0,0,2-2V6a2,2,0,0,0-4,0v5.2383A2,2,0,0,0,28,13.2383Z"/><path d="M39.8525,18.1475a1.9952,1.9952,0,0,0,1.4141-.5855l3.7041-3.7036a2,2,0,0,0-2.8281-2.8291l-3.7041,3.7041a2,2,0,0,0,1.414,3.4141Z"/><path d="M42.7617,28a2,2,0,0,0,2,2H50a2,2,0,0,0,0-4H44.7617A2,2,0,0,0,42.7617,28Z"/><path d="M38.4385,38.4385a1.9992,1.9992,0,0,0,0,2.8281l3.7041,3.7041a2,2,0,0,0,2.8281-2.8291L41.2666,38.438A2,2,0,0,0,38.4385,38.4385Z"/><path d="M26,44.7617V50a2,2,0,0,0,4,0V44.7617a2,2,0,1,0-4,0Z"/><path d="M17.5615,38.4385a2,2,0,0,0-2.8281,0l-3.7041,3.7036a2,2,0,0,0,2.8281,2.8291l3.7041-3.7041A1.9992,1.9992,0,0,0,17.5615,38.4385Z"/><path d="M13.2383,28a2,2,0,0,0-2-2H6a2,2,0,0,0,0,4h5.2383A2,2,0,0,0,13.2383,28Z"/><path d="M14.7334,17.562a2,2,0,0,0,2.8281-2.8286l-3.7041-3.7041a2,2,0,0,0-2.8281,2.8291Z"/><path d="M123.9365,95.498,110.7158,44.4971A6.0083,6.0083,0,0,0,104.9,40H52.13a2,2,0,1,0,0,4H66V58H48.3622l1.03-6.1807a2,2,0,0,0-3.9453-.6582L44.3072,58H27.9205l.1654-.6382a2,2,0,1,0-3.8711-1.0039l-.819,3.1582c-.009.0359-.0207.07-.0277.1069L14.0645,95.498c-.0042.0159-.0025.0328-.0063.0489-.0044.021-.0149.0415-.0182.063A1.7084,1.7084,0,0,0,14,96v8a2,2,0,0,0,2,2H58v6H47a2,2,0,0,0-2,2v8a2,2,0,0,0,2,2H89a2,2,0,0,0,2-2v-8a2,2,0,0,0-2-2H78v-6h44a2,2,0,0,0,2-2V96A2.024,2.024,0,0,0,123.9365,95.498ZM42.3608,94l2.3339-14H66V94Zm-23.776,0,3.6306-14H40.64L38.306,94ZM70,80H93.3059l2.3333,14H70Zm44.75-4H96.6941L94.3608,62h16.76ZM92.6392,76H70V62H90.3059Zm7.0549,18L97.3608,80h18.4259l3.6288,14Zm7.1506-48.498L110.0842,58h-16.39L91.3608,44H104.9A2.01,2.01,0,0,1,106.8447,45.502ZM70,44H87.3059l2.3333,14H70ZM66,62V76H45.3615l2.3339-14ZM43.64,62,41.3066,76H23.2526l3.6306-14ZM87,120H49v-4H87Zm-13-8H62v-6H74ZM18,102V98H120v4Z"/></g><text x="0" y="143" fill="#000000" font-size="5px" font-weight="bold" font-family="'Helvetica Neue', Helvetica, Arial-Unicode, Arial, Sans-serif">Created by Mutualism</text><text x="0" y="148" fill="#000000" font-size="5px" font-weight="bold" font-family="'Helvetica Neue', Helvetica, Arial-Unicode, Arial, Sans-serif">from the Noun Project</text></svg>