<svg height='100px' width='100px'  fill="#000000" xmlns="http://www.w3.org/2000/svg" xmlns:xlink="http://www.w3.org/1999/xlink" version="1.2" baseProfile="tiny" x="0px" y="0px" viewBox="0 0 100 100" xml:space="preserve"><g><path fill="#000000" d="M50.5,76.4c14.4,0,26.2-11.7,26.2-26.2c0-6.5-2.4-12.5-6.4-17.1c-0.1-0.1-0.2-0.2-0.3-0.3   c-4.8-5.4-11.8-8.7-19.5-8.7c-7.8,0-14.7,3.4-19.5,8.8c0,0-0.1,0.1-0.1,0.1c-4.1,4.6-6.5,10.7-6.5,17.3   C24.4,64.7,36.1,76.4,50.5,76.4z M27.5,43.1h46.2c0.6,2.1,1,4.2,1.1,6.5H26.4C26.5,47.3,26.8,45.1,27.5,43.1z M32.2,34.6h36.8   c1.6,1.9,3,4.1,4,6.5H28.2C29.2,38.7,30.5,36.5,32.2,34.6z M74.7,51.6c-0.1,2.3-0.6,4.4-1.3,6.5H27.7c-0.7-2.1-1.1-4.2-1.3-6.5   H74.7z M68.4,66.5H32.7c-1.7-1.9-3.2-4.1-4.2-6.5h44.2C71.6,62.5,70.1,64.6,68.4,66.5z M34.8,68.5h31.5c-4.2,3.7-9.7,5.9-15.8,5.9   S39,72.2,34.8,68.5z M67,32.6H34.1c4.3-4,10.1-6.5,16.5-6.5S62.7,28.6,67,32.6z"></path><path fill="#000000" d="M89,13.3H12.1c-0.6,0-1,0.4-1,1v71.9c0,0.6,0.4,1,1,1H89c0.6,0,1-0.4,1-1V14.3C90,13.7,89.5,13.3,89,13.3z    M88,85.2H13.1V15.3H88V85.2z"></path></g></svg>